<svg width="419" height="65" viewBox="0 0 419 65" fill="none" xmlns="http://www.w3.org/2000/svg">
<path d="M50.928 40.0325L68.1823 23.3424C68.6845 22.8403 69.2092 22.3099 69.7509 21.74C70.2926 21.1758 70.7834 20.5777 71.2236 19.9514C71.6637 19.3251 72.0304 18.6649 72.3238 17.9765C72.6172 17.2882 72.7639 16.566 72.7639 15.8099C72.7639 14.8902 72.5834 14.072 72.2335 13.3611C71.8781 12.6502 71.4041 12.0464 70.8229 11.5443C70.2361 11.0421 69.5591 10.6584 68.7861 10.3819C68.013 10.1111 67.1836 9.97568 66.3091 9.97568C64.4245 9.97568 62.8785 10.523 61.6654 11.6063C60.4523 12.6953 59.7188 14.1567 59.4705 15.9961L51.5656 15.3698C51.7348 13.3216 52.2257 11.5104 53.0382 9.94183C53.8564 8.37325 54.9115 7.06422 56.2092 6.02039C57.507 4.97655 59.0135 4.18098 60.7288 3.63367C62.444 3.092 64.306 2.82117 66.3147 2.82117C68.3234 2.82117 70.1966 3.08072 71.9288 3.60546C73.6667 4.13019 75.1788 4.9032 76.4766 5.92447C77.7743 6.95138 78.7956 8.25476 79.5517 9.84591C80.3078 11.4371 80.6802 13.299 80.6802 15.4318C80.6802 18.2361 80.0426 20.651 78.7674 22.6766C77.4922 24.7079 75.8503 26.6376 73.8416 28.4826L60.1025 41.2174H80.6802V47.9939H50.9393V40.0269L50.928 40.0325Z" fill="white"/>
<path d="M105.066 45.1784C115.727 45.1784 124.369 36.5364 124.369 25.8759C124.369 15.2154 115.727 6.57336 105.066 6.57336C94.406 6.57336 85.7639 15.2154 85.7639 25.8759C85.7639 36.5364 94.406 45.1784 105.066 45.1784Z" stroke="white" stroke-width="8.05729" stroke-miterlimit="10"/>
<path d="M156.355 15.3416C155.571 14.2018 154.522 13.3724 153.207 12.842C151.892 12.3116 150.51 12.0464 149.054 12.0464C148.191 12.0464 147.356 12.1424 146.555 12.3398C145.748 12.5373 145.02 12.8477 144.377 13.2821C143.728 13.7166 143.209 14.2752 142.819 14.9579C142.424 15.6463 142.233 16.4588 142.233 17.401C142.233 18.8116 142.723 19.895 143.705 20.6398C144.687 21.3846 145.906 22.0334 147.356 22.5807C148.806 23.128 150.397 23.6584 152.124 24.1719C153.85 24.6797 155.441 25.3906 156.891 26.2878C158.342 27.1905 159.56 28.3867 160.542 29.8819C161.524 31.3715 162.015 33.3576 162.015 35.829C162.015 38.0634 161.603 40.0213 160.779 41.6858C159.955 43.3559 158.844 44.7383 157.456 45.8385C156.062 46.9388 154.443 47.7626 152.598 48.3099C150.753 48.8572 148.812 49.1337 146.769 49.1337C144.179 49.1337 141.685 48.6992 139.293 47.8359C136.901 46.9727 134.835 45.5226 133.109 43.48L138.7 38.0634C139.603 39.4401 140.788 40.5065 142.261 41.2739C143.733 42.0356 145.296 42.4249 146.944 42.4249C147.807 42.4249 148.671 42.3064 149.534 42.0694C150.397 41.8325 151.181 41.4826 151.887 41.0087C152.592 40.5347 153.162 39.9423 153.596 39.2144C154.025 38.4922 154.245 37.6571 154.245 36.7148C154.245 35.1858 153.754 34.0065 152.773 33.1827C151.791 32.3589 150.572 31.6593 149.122 31.0894C147.672 30.5195 146.081 29.9835 144.354 29.4701C142.628 28.9622 141.036 28.2626 139.586 27.3767C138.136 26.4965 136.917 25.3173 135.936 23.8446C134.954 22.372 134.463 20.3971 134.463 17.9258C134.463 15.7648 134.903 13.9028 135.789 12.3342C136.675 10.7656 137.832 9.46224 139.265 8.4184C140.698 7.38021 142.334 6.60156 144.179 6.09375C146.024 5.58594 147.909 5.33203 149.833 5.33203C152.033 5.33203 154.161 5.66493 156.22 6.33073C158.279 7.00217 160.136 8.09679 161.783 9.62587L156.367 15.3359L156.355 15.3416Z" fill="white"/>
<path d="M162.246 25.8194V19.816H168.075V11.6289H175.139V19.816H182.908V25.8194H175.139V38.1819C175.139 39.5981 175.404 40.7153 175.934 41.5391C176.465 42.3629 177.514 42.7747 179.083 42.7747C179.709 42.7747 180.398 42.707 181.142 42.5716C181.887 42.4362 182.474 42.2105 182.908 41.8945V47.8416C182.164 48.1971 181.25 48.4397 180.172 48.5751C179.094 48.7105 178.141 48.7839 177.317 48.7839C175.432 48.7839 173.892 48.5751 172.696 48.1632C171.5 47.7513 170.557 47.125 169.869 46.2786C169.181 45.4323 168.712 44.3828 168.458 43.1302C168.204 41.872 168.075 40.4219 168.075 38.7743V25.8194H162.246Z" fill="white"/>
<path d="M186.091 19.816H193.155V24.2903H193.273C194.058 22.6428 195.175 21.3676 196.631 20.4648C198.081 19.562 199.751 19.1107 201.635 19.1107C202.064 19.1107 202.487 19.1502 202.899 19.2291C203.311 19.3081 203.734 19.4041 204.163 19.5225V26.3554C203.576 26.1975 202.995 26.0677 202.425 25.9718C201.855 25.8758 201.297 25.8251 200.749 25.8251C199.102 25.8251 197.776 26.1298 196.777 26.7391C195.779 27.3485 195.011 28.0425 194.481 28.8268C193.95 29.6111 193.601 30.3954 193.42 31.1797C193.239 31.964 193.155 32.5564 193.155 32.9457V48.0785H186.091V19.8216V19.816Z" fill="white"/>
<path d="M224.301 44.191H224.126C223.105 45.799 221.812 46.967 220.238 47.6949C218.67 48.4171 216.943 48.7838 215.059 48.7838C213.761 48.7838 212.497 48.6033 211.261 48.2535C210.026 47.898 208.925 47.3676 207.966 46.6623C207.007 45.957 206.228 45.0712 205.641 44.0104C205.055 42.9496 204.761 41.714 204.761 40.3034C204.761 38.7743 205.032 37.4709 205.585 36.3876C206.132 35.3099 206.871 34.4071 207.791 33.6792C208.711 32.9514 209.783 32.3758 211.002 31.9414C212.22 31.5069 213.484 31.1853 214.799 30.9709C216.114 30.7565 217.44 30.6154 218.771 30.559C220.103 30.5026 221.361 30.4687 222.54 30.4687H224.306V29.7014C224.306 27.9353 223.697 26.6094 222.484 25.7291C221.265 24.8433 219.719 24.4032 217.835 24.4032C216.345 24.4032 214.946 24.6684 213.654 25.1988C212.356 25.7291 211.239 26.4457 210.296 27.3485L206.589 23.6415C208.158 22.0334 209.992 20.8767 212.096 20.1714C214.195 19.4661 216.362 19.1107 218.602 19.1107C220.605 19.1107 222.292 19.3364 223.663 19.7877C225.034 20.2391 226.174 20.8147 227.077 21.5256C227.98 22.2309 228.674 23.049 229.164 23.9687C229.655 24.8884 230.011 25.8251 230.225 26.7673C230.44 27.7096 230.569 28.6237 230.609 29.5039C230.648 30.3897 230.665 31.1627 230.665 31.8285V48.0785H224.306V44.191H224.301ZM223.889 35.4171H222.416C221.434 35.4171 220.334 35.4566 219.121 35.5356C217.902 35.6146 216.757 35.8008 215.674 36.0942C214.59 36.3876 213.682 36.822 212.937 37.3919C212.192 37.9618 211.82 38.7574 211.82 39.7786C211.82 40.4444 211.967 41.003 212.26 41.4544C212.553 41.9058 212.937 42.2895 213.411 42.6054C213.885 42.9214 214.41 43.1471 215.002 43.2825C215.589 43.4179 216.181 43.4913 216.768 43.4913C219.2 43.4913 220.994 42.9101 222.157 41.7535C223.313 40.5968 223.894 39.0169 223.894 37.0139V35.4227L223.889 35.4171Z" fill="white"/>
<path d="M231.421 25.8194V19.816H237.25V11.6289H244.314V19.816H252.084V25.8194H244.314V38.1819C244.314 39.5981 244.579 40.7153 245.11 41.5391C245.64 42.3629 246.69 42.7747 248.258 42.7747C248.884 42.7747 249.573 42.707 250.318 42.5716C251.062 42.4362 251.649 42.2105 252.084 41.8945V47.8416C251.339 48.1971 250.425 48.4397 249.347 48.5751C248.269 48.7105 247.316 48.7839 246.492 48.7839C244.608 48.7839 243.067 48.5751 241.871 48.1632C240.675 47.7513 239.733 47.125 239.044 46.2786C238.356 45.4323 237.888 44.3828 237.634 43.1302C237.38 41.872 237.25 40.4219 237.25 38.7743V25.8194H231.421Z" fill="white"/>
<path d="M259.74 36.4158C259.977 38.5373 260.801 40.1849 262.212 41.3641C263.622 42.5434 265.332 43.1302 267.335 43.1302C269.101 43.1302 270.585 42.7691 271.781 42.0412C272.977 41.319 274.027 40.4049 274.93 39.3047L279.991 43.1302C278.343 45.1727 276.498 46.6228 274.456 47.4861C272.413 48.3494 270.275 48.7838 268.04 48.7838C265.919 48.7838 263.916 48.4284 262.037 47.7231C260.152 47.0178 258.522 46.0134 257.151 44.7213C255.78 43.4236 254.691 41.8663 253.884 40.0438C253.077 38.2213 252.676 36.1901 252.676 33.9501C252.676 31.71 253.077 29.6844 253.884 27.8563C254.691 26.0282 255.78 24.4709 257.151 23.1732C258.527 21.8754 260.152 20.8767 262.037 20.1714C263.921 19.4661 265.925 19.1107 268.04 19.1107C270.004 19.1107 271.798 19.4548 273.429 20.1432C275.054 20.8316 276.448 21.819 277.61 23.1167C278.767 24.4145 279.669 26.0113 280.318 27.9184C280.967 29.8199 281.289 32.0091 281.289 34.4804V36.4214H259.74V36.4158ZM274.224 31.1176C274.185 29.0356 273.536 27.3993 272.283 26.2031C271.025 25.0069 269.282 24.4088 267.042 24.4088C264.92 24.4088 263.244 25.0182 262.009 26.2313C260.773 27.4501 260.017 29.0751 259.74 31.1176H274.224Z" fill="white"/>
<path d="M313.433 19.816V45.5451C313.433 48.0955 313.117 50.4032 312.491 52.4627C311.864 54.5221 310.888 56.2713 309.579 57.7044C308.265 59.1376 306.606 60.2435 304.603 61.0334C302.6 61.8177 300.224 62.2127 297.482 62.2127C294.74 62.2127 292.359 61.8798 290.006 61.214C287.653 60.5482 285.475 59.3294 283.472 57.5634L287.709 51.7969C289.12 53.0946 290.593 54.0933 292.127 54.7986C293.657 55.5039 295.423 55.8594 297.426 55.8594C299.113 55.8594 300.535 55.6224 301.691 55.1541C302.848 54.6857 303.773 54.0369 304.456 53.2131C305.144 52.3893 305.635 51.3963 305.929 50.2396C306.222 49.0829 306.369 47.7964 306.369 46.3858V44.3264H306.25C305.229 45.7031 303.875 46.73 302.188 47.4184C300.501 48.1068 298.774 48.4509 297.008 48.4509C294.887 48.4509 292.962 48.0673 291.236 47.2999C289.509 46.5382 288.025 45.5056 286.79 44.2079C285.554 42.9101 284.601 41.3811 283.935 39.615C283.263 37.8489 282.936 35.9644 282.936 33.9614C282.936 31.9583 283.252 29.9384 283.878 28.1328C284.505 26.3272 285.43 24.7587 286.643 23.4214C287.856 22.0898 289.323 21.0347 291.027 20.273C292.737 19.5056 294.689 19.1219 296.884 19.1219C298.887 19.1219 300.749 19.5169 302.476 20.3012C304.202 21.0855 305.573 22.3437 306.594 24.0703H306.713V19.8329H313.427L313.433 19.816ZM298.362 25.464C297.104 25.464 295.97 25.6671 294.949 26.079C293.927 26.4909 293.053 27.0608 292.331 27.7886C291.603 28.5165 291.033 29.3967 290.621 30.4405C290.209 31.4787 290 32.6298 290 33.8824C290 35.0221 290.203 36.0829 290.621 37.0647C291.033 38.0464 291.614 38.9097 292.359 39.6545C293.104 40.3993 293.989 40.9917 295.011 41.4206C296.032 41.855 297.132 42.0694 298.306 42.0694C299.604 42.0694 300.766 41.855 301.81 41.4206C302.848 40.9917 303.734 40.4106 304.462 39.6827C305.189 38.9548 305.748 38.0803 306.143 37.0647C306.532 36.0434 306.73 34.9431 306.73 33.7695C306.73 31.2982 305.985 29.2951 304.49 27.766C303 26.2313 300.958 25.4696 298.368 25.4696L298.362 25.464Z" fill="white"/>
<path d="M317.022 10.2183C317.022 9.07855 317.445 8.09114 318.286 7.24478C319.132 6.39843 320.198 5.9809 321.496 5.9809C322.794 5.9809 323.883 6.3815 324.763 7.18836C325.649 7.99522 326.089 9.0052 326.089 10.2183C326.089 11.4314 325.649 12.447 324.763 13.2539C323.883 14.0608 322.794 14.4614 321.496 14.4614C320.198 14.4614 319.132 14.0382 318.286 13.1975C317.439 12.3511 317.022 11.3637 317.022 10.224V10.2183ZM318.026 19.816H325.09V48.0729H318.026V19.816Z" fill="white"/>
<path d="M335.331 36.4158C335.568 38.5373 336.392 40.1849 337.802 41.3641C339.213 42.5434 340.923 43.1302 342.926 43.1302C344.692 43.1302 346.176 42.7691 347.372 42.0412C348.568 41.319 349.618 40.4049 350.52 39.3047L355.582 43.1302C353.934 45.1727 352.089 46.6228 350.046 47.4861C348.004 48.3494 345.865 48.7838 343.631 48.7838C341.509 48.7838 339.506 48.4284 337.628 47.7231C335.743 47.0178 334.112 46.0134 332.741 44.7213C331.37 43.4236 330.281 41.8663 329.474 40.0438C328.667 38.2213 328.267 36.1901 328.267 33.9501C328.267 31.71 328.667 29.6844 329.474 27.8563C330.281 26.0282 331.37 24.4709 332.741 23.1732C334.118 21.8754 335.743 20.8767 337.628 20.1714C339.512 19.4661 341.515 19.1107 343.631 19.1107C345.595 19.1107 347.389 19.4548 349.019 20.1432C350.644 20.8316 352.038 21.819 353.2 23.1167C354.357 24.4145 355.26 26.0113 355.909 27.9184C356.558 29.8199 356.879 32.0091 356.879 34.4804V36.4214H335.331V36.4158ZM349.815 31.1176C349.776 29.0356 349.127 27.3993 347.874 26.2031C346.616 25.0069 344.872 24.4088 342.632 24.4088C340.511 24.4088 338.835 25.0182 337.599 26.2313C336.364 27.4501 335.608 29.0751 335.331 31.1176H349.815Z" fill="white"/>
<path d="M375.014 27.6476C373.643 25.7235 371.798 24.7587 369.479 24.7587C368.536 24.7587 367.617 24.9957 366.714 25.464C365.811 25.9323 365.36 26.6997 365.36 27.7604C365.36 28.6237 365.732 29.25 366.477 29.645C367.222 30.0399 368.164 30.3728 369.304 30.6437C370.444 30.9201 371.668 31.2023 372.983 31.4957C374.297 31.7891 375.522 32.2405 376.661 32.8498C377.801 33.4592 378.738 34.2943 379.488 35.3494C380.233 36.4102 380.605 37.8602 380.605 39.7053C380.605 41.3924 380.244 42.8142 379.516 43.9709C378.789 45.1276 377.846 46.0586 376.69 46.7695C375.533 47.4748 374.224 47.9883 372.774 48.2986C371.324 48.6146 369.868 48.7726 368.418 48.7726C366.217 48.7726 364.197 48.4566 362.352 47.8303C360.507 47.204 358.86 46.0642 357.404 44.4167L362.115 39.9987C363.018 41.02 363.989 41.855 365.027 42.4983C366.065 43.1471 367.335 43.4688 368.824 43.4688C369.332 43.4688 369.862 43.4067 370.415 43.2882C370.963 43.1697 371.476 42.9722 371.944 42.7014C372.418 42.4249 372.796 42.0807 373.095 41.6688C373.395 41.2569 373.536 40.7773 373.536 40.2244C373.536 39.2426 373.163 38.5148 372.418 38.0464C371.674 37.5781 370.731 37.1944 369.592 36.901C368.452 36.6076 367.227 36.3312 365.913 36.0773C364.598 35.8233 363.368 35.4115 362.234 34.8416C361.094 34.2717 360.152 33.4761 359.407 32.4549C358.662 31.4336 358.29 30.023 358.29 28.2174C358.29 26.6489 358.612 25.2834 359.26 24.1267C359.909 22.9701 360.761 22.0165 361.822 21.2717C362.883 20.5269 364.096 19.974 365.473 19.6241C366.844 19.2687 368.237 19.0938 369.654 19.0938C371.538 19.0938 373.4 19.4154 375.245 20.0642C377.09 20.7131 378.58 21.819 379.72 23.3876L375.008 27.625L375.014 27.6476Z" fill="white"/>
<path d="M388.172 19.658C385.012 19.658 382.456 17.0963 382.456 13.9422C382.456 10.7882 385.018 8.22654 388.172 8.22654C391.326 8.22654 393.888 10.7882 393.888 13.9422C393.888 17.0963 391.326 19.658 388.172 19.658ZM388.172 4.3728C382.845 4.3728 378.529 8.68921 378.529 14.0156C378.529 19.342 382.845 23.6584 388.172 23.6584C393.498 23.6584 397.815 19.342 397.815 14.0156C397.815 8.68921 393.498 4.3728 388.172 4.3728Z" fill="white"/>
<path d="M20.7188 3.49261H50.3863V10.3932L32.9345 47.9036H24.2339L42.0582 10.6471H20.7188V3.49261Z" fill="white"/>
</svg>
