<svg preserveAspectRatio="none" width="100%" height="100%" overflow="visible" style="display: block;" viewBox="0 0 73.0352 73.0352" fill="none" xmlns="http://www.w3.org/2000/svg">
<g id="Accessibility">
<path id="Icon" d="M36.5176 73.0352C16.3873 73.0352 0 56.6479 0 36.5176C0 16.3873 16.3873 0 36.5176 0C56.6479 0 73.0352 16.3873 73.0352 36.5176C73.0352 56.6479 56.6479 73.0352 36.5176 73.0352ZM36.5176 7.30352C20.4042 7.30352 7.30352 20.4042 7.30352 36.5176C7.30352 52.631 20.4042 65.7316 36.5176 65.7316C52.631 65.7316 65.7316 52.631 65.7316 36.5176C65.7316 20.4042 52.631 7.30352 36.5176 7.30352ZM44.734 59.3411C43.2733 59.3411 41.9039 58.4738 41.3562 57.0131L36.8828 45.647H36.1524L31.7246 57.0131C30.9943 58.8846 28.8945 59.8432 26.9774 59.0672C25.1058 58.3368 24.1929 56.2371 24.9232 54.3199L32.0442 36.1068V30.4009C28.2555 29.9444 24.2385 28.8489 20.2216 26.6578C18.4414 25.6992 17.8023 23.5082 18.7153 21.728C19.6738 19.9477 21.8649 19.3087 23.6451 20.2216C27.6621 22.367 31.679 23.1887 35.2851 23.3256C35.3764 23.3256 35.5133 23.3256 35.6046 23.3256H37.2479C44.0493 23.0517 49.0705 20.4498 49.39 20.2673C51.1703 19.3087 53.3613 19.9934 54.3199 21.7736C55.2785 23.5538 54.6394 25.7449 52.8592 26.7035C52.494 26.8861 47.838 29.3966 41.0366 30.3096V36.198L48.1119 54.3199C48.8423 56.1914 47.9293 58.3368 46.0578 59.0672C45.6013 59.2498 45.1905 59.3411 44.734 59.3411ZM36.5176 20.9063C34.007 20.9063 31.9529 18.8522 31.9529 16.3416C31.9529 13.831 34.007 11.7769 36.5176 11.7769C39.0282 11.7769 41.0823 13.831 41.0823 16.3416C41.0823 18.8522 39.0282 20.9063 36.5176 20.9063Z" fill="var(--fill-0, white)"/>
</g>
</svg>
