<svg preserveAspectRatio="none" width="100%" height="100%" overflow="visible" style="display: block;" viewBox="0 0 73.04 73.04" fill="none" xmlns="http://www.w3.org/2000/svg">
<g id="Cookies">
<circle id="Ellipse 5" cx="36.52" cy="36.52" r="36.52" fill="var(--fill-0, #D9D9D9)"/>
<path id="Vector" d="M55.2537 33.085C54.1539 33.4323 52.9963 33.6638 51.8387 33.6638C46.3978 33.6059 41.9988 29.2069 41.9409 23.766C41.9409 22.7241 42.1145 21.6823 42.4618 20.6983C41.1884 19.3091 40.4938 17.5148 40.4938 15.6626C40.4938 14.9101 40.6096 14.1576 40.8411 13.4052C39.3941 13.1736 37.947 13 36.5 13C23.5345 13 13 23.5345 13 36.5C13 49.4655 23.5345 60 36.5 60C49.4655 60 60 49.4655 60 36.5C60 35.9791 60 35.4581 59.9421 34.9372C58.2635 34.7635 56.585 34.1268 55.2537 33.085ZM23.766 30.1909C27.8177 30.1909 27.8177 36.5579 23.766 36.5579C19.7143 36.5579 19.1355 30.1909 23.766 30.1909ZM27.2389 50.0443C22.6084 50.0443 22.6084 43.0985 27.2389 43.0985C31.8695 43.0985 31.8695 50.0443 27.2389 50.0443ZM34.1847 16.1256C38.2365 16.1256 38.2365 23.0714 34.1847 23.0714C30.133 23.0714 29.5542 16.1256 34.1847 16.1256ZM37.0788 33.7796C40.5517 33.7796 40.5517 38.4101 37.0788 38.4101C33.6059 38.4101 34.1847 33.7796 37.0788 33.7796ZM41.1305 52.8227C37.6576 52.8227 37.6576 48.1921 41.1305 48.1921C44.6035 48.1921 44.0246 52.8227 41.1305 52.8227ZM52.1281 43.7931C49.234 43.7931 49.234 39.1626 52.1281 39.1626C55.0222 39.1626 55.0222 43.7931 52.1281 43.7931Z" fill="var(--fill-0, black)"/>
</g>
</svg>
