<svg preserveAspectRatio="none" width="100%" height="100%" overflow="visible" style="display: block;" viewBox="0 0 39.56 39.56" fill="none" xmlns="http://www.w3.org/2000/svg">
<g id="IG">
<circle id="Ellipse 2" cx="19.78" cy="19.78" r="19.78" fill="var(--fill-0, #B21E3B)"/>
<g id="Instagram">
<path id="Vector" d="M24.4274 26.9941H15.1326C13.8482 26.9941 12.7988 25.9448 12.7988 24.6603V15.3655C12.7988 14.0811 13.8482 13.0317 15.1326 13.0317H24.4274C25.7119 13.0317 26.7612 14.0811 26.7612 15.3655V24.6603C26.7612 25.9505 25.7176 26.9941 24.4274 26.9941Z" fill="var(--fill-0, white)"/>
<path id="Vector_2" d="M19.783 23.5997C18.8254 23.5997 17.9252 23.2269 17.2485 22.5503C16.5719 21.8737 16.1992 20.9735 16.1992 20.0159C16.1992 19.0583 16.5719 18.1581 17.2485 17.4815C17.9252 16.8048 18.8254 16.4321 19.783 16.4321C20.7406 16.4321 21.6408 16.8048 22.3174 17.4815C22.994 18.1581 23.3668 19.0583 23.3668 20.0159C23.3668 20.9735 22.994 21.8737 22.3174 22.5503C21.6351 23.2269 20.7406 23.5997 19.783 23.5997ZM19.783 17.1948C18.2291 17.1948 16.9618 18.4562 16.9618 20.0159C16.9618 21.5698 18.2233 22.837 19.783 22.837C21.3369 22.837 22.6041 21.5755 22.6041 20.0159C22.5984 18.462 21.3369 17.1948 19.783 17.1948Z" fill="var(--fill-0, black)"/>
<path id="Vector_3" d="M24.0651 16.3142C24.4451 16.3142 24.7532 16.0061 24.7532 15.6261C24.7532 15.2461 24.4451 14.938 24.0651 14.938C23.685 14.938 23.377 15.2461 23.377 15.6261C23.377 16.0061 23.685 16.3142 24.0651 16.3142Z" fill="var(--fill-0, black)"/>
</g>
</g>
</svg>
