<svg preserveAspectRatio="none" width="100%" height="100%" overflow="visible" style="display: block;" viewBox="0 0 39.5622 39.5622" fill="none" xmlns="http://www.w3.org/2000/svg">
<g id="LI">
<circle id="Ellipse 4" cx="19.7811" cy="19.7811" r="19.7811" fill="var(--fill-0, #B21E3B)"/>
<g id="LinkedIn">
<path id="Vector" d="M15.3146 17.2256H11.9106V28.0806H15.3146V17.2256Z" fill="var(--fill-0, white)"/>
<path id="Vector_2" d="M24.5224 16.9903C24.3969 16.9747 24.2636 16.9668 24.1302 16.959C22.2243 16.8805 21.1498 18.01 20.7733 18.4962C20.6714 18.6296 20.6243 18.708 20.6243 18.708V17.257H17.3694V28.112H20.6243H20.7733C20.7733 27.0061 20.7733 25.9081 20.7733 24.8022C20.7733 24.2061 20.7733 23.61 20.7733 23.0139C20.7733 22.2767 20.7184 21.4923 21.0871 20.8178C21.4008 20.2531 21.9655 19.9708 22.6008 19.9708C24.4832 19.9708 24.5224 21.6727 24.5224 21.8296C24.5224 21.8374 24.5224 21.8453 24.5224 21.8453V28.1591H27.9263V21.0766C27.9263 18.6531 26.695 17.2256 24.5224 16.9903Z" fill="var(--fill-0, white)"/>
<path id="Vector_3" d="M13.6125 15.8216C14.7041 15.8216 15.589 14.9367 15.589 13.8451C15.589 12.7536 14.7041 11.8687 13.6125 11.8687C12.5209 11.8687 11.636 12.7536 11.636 13.8451C11.636 14.9367 12.5209 15.8216 13.6125 15.8216Z" fill="var(--fill-0, white)"/>
</g>
</g>
</svg>
